<svg xmlns="http://www.w3.org/2000/svg" viewBox="0 0 64 64">
  <defs>
    <linearGradient id="hb" x1="0" y1="0" x2="1" y2="1">
      <stop offset="0" stop-color="#5A63C7"/>
      <stop offset="1" stop-color="#2514A7"/>
    </linearGradient>
  </defs>
  <path fill="url(#hb)" stroke="#C6CAE4" stroke-width="2" d="M32 58C19 47 8 38 8 26 8 17.5 14.5 12 22 12c4.4 0 8 2.2 10 5.6 2-3.4 5.6-5.6 10-5.6 7.5 0 14 5.5 14 14 0 12-11 21-24 32z"/>
  <path fill="#FCFCFD" opacity=".5" d="M17 20c1.6-3.2 4.8-4.8 7.2-4.8 1.2 0 1.6.6 1.2 1.4-.9 1.6-3.2 2.7-5.2 4.8-1.3 1.3-2.1 1.9-2.7 1.3-.5-.5-.7-1.6-.5-2.7z"/>
  <g stroke="#C6CAE4" stroke-width="2">
    <path fill="#0AA9E7" d="M32 12l-8-7c-2.4-1.8-5 .8-3.6 3.4L24 14z"/>
    <path fill="#0AA9E7" d="M32 12l8-7c2.4-1.8 5 .8 3.6 3.4L40 14z"/>
  </g>
  <circle cx="32" cy="13" r="3" fill="#FCFCFD" stroke="#C6CAE4" stroke-width="1.5"/>
</svg>
